<svg width="32" height="32" viewBox="0 0 32 32" fill="none" xmlns="http://www.w3.org/2000/svg">
  <rect width="32" height="32" rx="8" fill="#141414"/>
  <path d="M16 8L11.5 10.5V15.5L16 18L20.5 15.5V10.5L16 8Z" stroke="white" stroke-width="1.5" stroke-linejoin="round"/>
  <path d="M11.5 10.5L16 13L20.5 10.5" stroke="white" stroke-width="1.5" stroke-linejoin="round"/>
  <path d="M16 13V18" stroke="white" stroke-width="1.5" stroke-linejoin="round"/>
  
  <path d="M11.5 16L7 18.5V23.5L11.5 26L16 23.5V18.5L11.5 16Z" stroke="white" stroke-width="1.5" stroke-linejoin="round"/>
  <path d="M7 18.5L11.5 21L16 18.5" stroke="white" stroke-width="1.5" stroke-linejoin="round"/>
  <path d="M11.5 21V26" stroke="white" stroke-width="1.5" stroke-linejoin="round"/>
  
  <path d="M20.5 16L16 18.5V23.5L20.5 26L25 23.5V18.5L20.5 16Z" stroke="white" stroke-width="1.5" stroke-linejoin="round"/>
  <path d="M16 18.5L20.5 21L25 18.5" stroke="white" stroke-width="1.5" stroke-linejoin="round"/>
  <path d="M20.5 21V26" stroke="white" stroke-width="1.5" stroke-linejoin="round"/>
</svg>
